<?xml version="1.0" encoding="UTF-8" standalone="no"?>
<svg
   xmlns:dc="http://purl.org/dc/elements/1.1/"
   xmlns:cc="http://creativecommons.org/ns#"
   xmlns:rdf="http://www.w3.org/1999/02/22-rdf-syntax-ns#"
   xmlns:svg="http://www.w3.org/2000/svg"
   xmlns="http://www.w3.org/2000/svg"
   viewBox="0 -256 1792 1792"
   id="svg3001"
   version="1.1"
   width="100%"
   height="100%">
  <g
     transform="matrix(1,0,0,-1,387.25424,1293.0169)"
     id="g3003">
    <path
       d="m 1024,448 q 0,-26 -19,-45 L 557,-45 q -19,-19 -45,-19 -26,0 -45,19 L 19,403 q -19,19 -19,45 0,26 19,45 19,19 45,19 h 896 q 26,0 45,-19 19,-19 19,-45 z m 0,384 q 0,-26 -19,-45 -19,-19 -45,-19 H 64 q -26,0 -45,19 -19,19 -19,45 0,26 19,45 l 448,448 q 19,19 45,19 26,0 45,-19 l 448,-448 q 19,-19 19,-45 z"
       id="path3005" fill="rgb(220,220,220)" />
  </g>
</svg>
